<svg  viewBox="0 0 32 32" fill="none" xmlns="http://www.w3.org/2000/svg">
    <path d="M3.169 3.51703H28.835V28.483H3.169V3.51703Z" fill="#1C0A00"/>
    <path d="M3.169 3.51698H28.835V28.483H3.169V3.51698ZM2 29.65H30V2.34998H2V29.65ZM20.34 12.08C20.34 11.987 20.375 11.94 20.48 11.94H22.312C22.405 11.94 22.452 11.975 22.452 12.08V21.285C22.452 21.378 22.429 21.425 22.312 21.425H20.505C20.388 21.425 20.353 21.367 20.353 21.273V12.08H20.341H20.34ZM20.212 9.43198C20.212 9.11637 20.3374 8.81369 20.5605 8.59052C20.7837 8.36735 21.0864 8.24198 21.402 8.24198C21.7176 8.24198 22.0203 8.36735 22.2435 8.59052C22.4666 8.81369 22.592 9.11637 22.592 9.43198C22.6035 9.5932 22.5799 9.75501 22.5227 9.90618C22.4655 10.0574 22.3761 10.1943 22.2607 10.3075C22.1453 10.4207 22.0067 10.5074 21.8544 10.5617C21.7022 10.616 21.54 10.6366 21.379 10.622C21.2213 10.6319 21.0633 10.6077 20.9158 10.551C20.7682 10.4944 20.6347 10.4066 20.5241 10.2937C20.4136 10.1807 20.3286 10.0453 20.2751 9.89662C20.2216 9.74793 20.2008 9.58945 20.214 9.43198H20.212ZM14.962 15.919C14.635 14.619 13.862 11.801 13.574 10.436H13.551C13.306 11.801 12.688 14.111 12.198 15.919H14.962ZM11.719 17.809L10.797 21.309C10.774 21.402 10.739 21.426 10.622 21.426H8.909C8.792 21.426 8.769 21.391 8.792 21.251L12.105 9.65098C12.1856 9.33472 12.225 9.00934 12.222 8.68298C12.222 8.60098 12.257 8.56598 12.315 8.56598H14.765C14.847 8.56598 14.882 8.58898 14.905 8.68298L18.615 21.271C18.638 21.364 18.615 21.423 18.522 21.423H16.585C16.492 21.423 16.433 21.4 16.41 21.323L15.453 17.811H11.72L11.719 17.809Z" fill="#FF7F18"/>
    </svg>
    