<svg width="24" height="24" viewBox="0 0 24 24" fill="none" xmlns="http://www.w3.org/2000/svg">
<path opacity="0.3" d="M21 22H3C2.4 22 2 21.6 2 21V5C2 4.4 2.4 4 3 4H21C21.6 4 22 4.4 22 5V21C22 21.6 21.6 22 21 22Z" fill="currentColor"/>
<path d="M6 6C5.4 6 5 5.6 5 5V3C5 2.4 5.4 2 6 2C6.6 2 7 2.4 7 3V5C7 5.6 6.6 6 6 6ZM11 5V3C11 2.4 10.6 2 10 2C9.4 2 9 2.4 9 3V5C9 5.6 9.4 6 10 6C10.6 6 11 5.6 11 5ZM15 5V3C15 2.4 14.6 2 14 2C13.4 2 13 2.4 13 3V5C13 5.6 13.4 6 14 6C14.6 6 15 5.6 15 5ZM19 5V3C19 2.4 18.6 2 18 2C17.4 2 17 2.4 17 3V5C17 5.6 17.4 6 18 6C18.6 6 19 5.6 19 5Z" fill="currentColor"/>
<path d="M8.79997 13.1C9.19997 13.1 9.49997 13 9.69997 12.8C9.89997 12.6 10.1 12.3 10.1 11.9C10.1 11.6 9.99997 11.3 9.79997 11.1C9.59997 10.9 9.29997 10.8 8.99997 10.8C8.79997 10.8 8.59996 10.8 8.39996 10.9C8.19996 11 8.09997 11.1 7.99997 11.2C7.89997 11.3 7.79997 11.4 7.69997 11.6C7.59997 11.8 7.49997 11.9 7.49997 12.1C7.49997 12.2 7.39997 12.2 7.29997 12.3C7.19997 12.4 7.09996 12.4 6.89996 12.4C6.69996 12.4 6.59997 12.3 6.49997 12.2C6.39997 12.1 6.29997 11.9 6.29997 11.7C6.29997 11.5 6.39997 11.3 6.49997 11.1C6.59997 10.9 6.79997 10.7 6.99997 10.5C7.19997 10.3 7.49996 10.1 7.89996 10C8.29996 9.90003 8.59998 9.80003 9.09998 9.80003C9.49998 9.80003 9.79998 9.90003 10.1 10C10.4 10.1 10.7 10.3 10.9 10.4C11.1 10.5 11.3 10.8 11.4 11.1C11.5 11.4 11.6 11.6 11.6 11.9C11.6 12.3 11.5 12.6 11.3 12.9C11.1 13.2 10.9 13.5 10.6 13.7C10.9 13.9 11.2 14.1 11.4 14.3C11.6 14.5 11.8 14.7 11.9 15C12 15.3 12.1 15.5 12.1 15.8C12.1 16.2 12 16.5 11.9 16.8C11.8 17.1 11.5 17.4 11.3 17.7C11.1 18 10.7 18.2 10.3 18.3C9.89997 18.4 9.49997 18.5 8.99997 18.5C8.49997 18.5 8.09997 18.4 7.69997 18.2C7.29997 18 6.99997 17.8 6.79997 17.6C6.59997 17.4 6.39997 17.1 6.29997 16.8C6.19997 16.5 6.09998 16.3 6.09998 16.1C6.09998 15.9 6.19997 15.7 6.29997 15.6C6.39997 15.5 6.59997 15.4 6.79997 15.4C6.89997 15.4 6.99998 15.4 7.09998 15.5C7.19998 15.6 7.29997 15.6 7.29997 15.7C7.49997 16.2 7.69997 16.6 7.99997 16.9C8.29997 17.2 8.59997 17.3 8.99997 17.3C9.19997 17.3 9.49997 17.2 9.69997 17.1C9.89997 17 10.1 16.8 10.3 16.6C10.5 16.4 10.5 16.1 10.5 15.8C10.5 15.3 10.4 15 10.1 14.7C9.79998 14.4 9.49998 14.3 9.09998 14.3C8.99998 14.3 8.89997 14.3 8.69997 14.3C8.49997 14.3 8.39996 14.3 8.39996 14.3C8.19996 14.3 7.99996 14.2 7.89996 14.1C7.79996 14 7.69997 13.8 7.69997 13.7C7.69997 13.5 7.79996 13.4 7.89996 13.2C7.99996 13 8.19997 13 8.49997 13H8.79997V13.1ZM15.3 17.5V12.2C14.3 13 13.6 13.3 13.3 13.3C13.1 13.3 13 13.2 12.9 13.1C12.8 13 12.7 12.8 12.7 12.6C12.7 12.4 12.8 12.3 12.9 12.2C13 12.1 13.2 12 13.6 11.8C14.1 11.6 14.5 11.3 14.7 11.1C14.9 10.9 15.2 10.6 15.5 10.3C15.8 10 15.9 9.80003 15.9 9.70003C15.9 9.60003 16.1 9.60004 16.3 9.60004C16.5 9.60004 16.7 9.70003 16.8 9.80003C16.9 9.90003 17 10.2 17 10.5V17.2C17 18 16.7 18.4 16.2 18.4C16 18.4 15.8 18.3 15.6 18.2C15.4 18.1 15.3 17.8 15.3 17.5Z" fill="currentColor"/>
</svg>
