<svg width="24" height="24" viewBox="0 0 24 24" fill="none" xmlns="http://www.w3.org/2000/svg">
<path opacity="0.3" d="M20 3H4C2.89543 3 2 3.89543 2 5V16C2 17.1046 2.89543 18 4 18H4.5C5.05228 18 5.5 18.4477 5.5 19V21.5052C5.5 22.1441 6.21212 22.5253 6.74376 22.1708L11.4885 19.0077C12.4741 18.3506 13.6321 18 14.8167 18H20C21.1046 18 22 17.1046 22 16V5C22 3.89543 21.1046 3 20 3Z" fill="currentColor"/>
<path d="M12 12H7C6.44772 12 6 12.4477 6 13C6 13.5523 6.44772 14 7 14H12C12.5523 14 13 13.5523 13 13C13 12.4477 12.5523 12 12 12Z" fill="currentColor"/>
<path d="M17 7H7C6.44772 7 6 7.44772 6 8C6 8.55228 6.44772 9 7 9H17C17.5523 9 18 8.55228 18 8C18 7.44772 17.5523 7 17 7Z" fill="currentColor"/>
</svg>
