<svg width="24" height="24" viewBox="0 0 24 24" fill="none" xmlns="http://www.w3.org/2000/svg">
<path opacity="0.3" d="M17 2H7C4.23858 2 2 4.23858 2 7V17C2 19.7614 4.23858 22 7 22H17C19.7614 22 22 19.7614 22 17V7C22 4.23858 19.7614 2 17 2Z" fill="currentColor"/>
<path d="M10.4343 12.4343L8.74999 10.75C8.33578 10.3358 7.6642 10.3358 7.24999 10.75C6.83578 11.1642 6.83578 11.8358 7.24999 12.25L10.2929 15.2929C10.6834 15.6834 11.3166 15.6834 11.7071 15.2929L17.25 9.75C17.6642 9.33579 17.6642 8.66421 17.25 8.25C16.8358 7.83579 16.1642 7.83579 15.75 8.25L11.5657 12.4343C11.2533 12.7467 10.7467 12.7467 10.4343 12.4343Z" fill="currentColor"/>
</svg>
