<svg width="24" height="24" viewBox="0 0 24 24" fill="none" xmlns="http://www.w3.org/2000/svg">
<path opacity="0.3" fill-rule="evenodd" clip-rule="evenodd" d="M9.87864 12.7071L7.75732 14.8284C7.36679 15.2189 7.36679 15.8521 7.75732 16.2426C8.14784 16.6332 8.78101 16.6332 9.17153 16.2426L11.2929 14.1213L12 14.8284C12.781 15.6095 12.781 16.8758 12 17.6569L9.17153 20.4853C8.39048 21.2663 7.12415 21.2663 6.34311 20.4853L3.51468 17.6569C2.73363 16.8758 2.73363 15.6095 3.51468 14.8284L6.3431 12C7.12415 11.2189 8.39048 11.2189 9.17153 12L9.87864 12.7071Z" fill="currentColor"/>
<path fill-rule="evenodd" clip-rule="evenodd" d="M14.1213 11.2929L16.2427 9.17158C16.6332 8.78105 16.6332 8.14789 16.2427 7.75736C15.8521 7.36684 15.219 7.36684 14.8285 7.75736L12.7071 9.87868L12 9.17158C11.219 8.39053 11.219 7.1242 12 6.34315L14.8285 3.51472C15.6095 2.73367 16.8758 2.73367 17.6569 3.51472L20.4853 6.34315C21.2664 7.1242 21.2664 8.39053 20.4853 9.17158L17.6569 12C16.8758 12.7811 15.6095 12.7811 14.8285 12L14.1213 11.2929Z" fill="currentColor"/>
<path opacity="0.3" fill-rule="evenodd" clip-rule="evenodd" d="M4.22184 4.22182C4.61237 3.8313 5.24553 3.8313 5.63606 4.22182L7.05027 5.63604C7.44079 6.02656 7.44079 6.65973 7.05027 7.05025C6.65974 7.44077 6.02658 7.44077 5.63606 7.05025L4.22184 5.63604C3.83132 5.24551 3.83132 4.61235 4.22184 4.22182ZM9.34316 1.51472C9.89545 1.51472 10.3432 1.96243 10.3432 2.51472L10.3432 4.51472C10.3432 5.067 9.89545 5.51472 9.34316 5.51472C8.79088 5.51472 8.34316 5.067 8.34316 4.51472L8.34316 2.51471C8.34316 1.96243 8.79088 1.51472 9.34316 1.51472ZM1.68631 9.17157C1.68631 8.61928 2.13402 8.17157 2.68631 8.17157L4.68631 8.17157C5.23859 8.17157 5.68631 8.61929 5.68631 9.17157C5.68631 9.72385 5.23859 10.1716 4.68631 10.1716L2.68631 10.1716C2.13402 10.1716 1.68631 9.72385 1.68631 9.17157Z" fill="currentColor"/>
<path opacity="0.3" fill-rule="evenodd" clip-rule="evenodd" d="M19.6569 19.6569C20.0474 19.2663 20.0474 18.6332 19.6569 18.2426L18.2427 16.8284C17.8522 16.4379 17.219 16.4379 16.8285 16.8284C16.4379 17.2189 16.4379 17.8521 16.8285 18.2426L18.2427 19.6569C18.6332 20.0474 19.2664 20.0474 19.6569 19.6569ZM22.364 14.5355C22.364 13.9832 21.9163 13.5355 21.364 13.5355H19.364C18.8117 13.5355 18.364 13.9832 18.364 14.5355C18.364 15.0878 18.8117 15.5355 19.364 15.5355H21.364C21.9163 15.5355 22.364 15.0878 22.364 14.5355ZM14.7072 22.1924C15.2594 22.1924 15.7072 21.7447 15.7072 21.1924V19.1924C15.7072 18.6401 15.2594 18.1924 14.7072 18.1924C14.1549 18.1924 13.7072 18.6401 13.7072 19.1924V21.1924C13.7072 21.7447 14.1549 22.1924 14.7072 22.1924Z" fill="currentColor"/>
</svg>
