<svg width="24" height="24" viewBox="0 0 24 24" fill="none" xmlns="http://www.w3.org/2000/svg">
<path fill-rule="evenodd" clip-rule="evenodd" d="M22 14V18C22 19.1046 21.1046 20 20 20H4C2.89543 20 2 19.1046 2 18V14H6.27924L6.82339 15.6325C7.09562 16.4491 7.8599 17 8.72076 17H15.382C16.1395 17 16.832 16.572 17.1708 15.8944L18.118 14H22Z" fill="currentColor"/>
<path opacity="0.3" fill-rule="evenodd" clip-rule="evenodd" d="M2.5625 12L5.92654 6.01948C6.28078 5.38972 6.94715 5 7.66969 5H16.3303C17.0529 5 17.7192 5.38972 18.0735 6.01948L21.4375 12H18.118C17.3605 12 16.668 12.428 16.3292 13.1056L15.382 15H8.72076L8.17661 13.3675C7.90438 12.5509 7.1401 12 6.27924 12H2.5625Z" fill="currentColor"/>
</svg>
