<svg  viewBox="0 0 32 32" fill="none" xmlns="http://www.w3.org/2000/svg">
    <path d="M21.3333 21.3334C24.2789 21.3334 26.6667 18.9455 26.6667 16C26.6667 13.0545 24.2789 10.6667 21.3333 10.6667C18.3878 10.6667 16 13.0545 16 16C16 18.9455 18.3878 21.3334 21.3333 21.3334Z" fill="#19BCFE"/>
    <path fill-rule="evenodd" clip-rule="evenodd" d="M10.6667 32C12.0811 32 13.4377 31.4381 14.4379 30.4379C15.4381 29.4377 16 28.0811 16 26.6666V21.3333H10.6667C9.25217 21.3333 7.89562 21.8952 6.89543 22.8954C5.89523 23.8956 5.33333 25.2522 5.33333 26.6666C5.33333 28.0811 5.89523 29.4377 6.89543 30.4379C7.89562 31.4381 9.25217 32 10.6667 32V32Z" fill="#09CF83"/>
    <path fill-rule="evenodd" clip-rule="evenodd" d="M10.6667 21.3334H16V10.6667H10.6667C9.25217 10.6667 7.89562 11.2286 6.89543 12.2288C5.89523 13.229 5.33333 14.5855 5.33333 16C5.33333 17.4145 5.89523 18.7711 6.89543 19.7713C7.89562 20.7715 9.25217 21.3334 10.6667 21.3334V21.3334Z" fill="#A259FF"/>
    <path fill-rule="evenodd" clip-rule="evenodd" d="M10.6667 10.6667H16V0H10.6667C9.25217 0 7.89562 0.561903 6.89543 1.5621C5.89523 2.56229 5.33333 3.91885 5.33333 5.33333C5.33333 6.74782 5.89523 8.10438 6.89543 9.10457C7.89562 10.1048 9.25217 10.6667 10.6667 10.6667V10.6667Z" fill="#F24E1E"/>
    <path fill-rule="evenodd" clip-rule="evenodd" d="M21.3333 10.6667H16V0H21.3333C22.7478 0 24.1044 0.561903 25.1046 1.5621C26.1048 2.56229 26.6667 3.91885 26.6667 5.33333C26.6667 6.74782 26.1048 8.10438 25.1046 9.10457C24.1044 10.1048 22.7478 10.6667 21.3333 10.6667Z" fill="#FF7262"/>
    </svg>
    