<svg width="24" height="24" viewBox="0 0 24 24" fill="none" xmlns="http://www.w3.org/2000/svg">
<path fill-rule="evenodd" clip-rule="evenodd" d="M16 15.6316V12C16 10.3431 14.6569 9 13 9H6.16187V5.52632C6.16187 4.13107 7.29294 3 8.68818 3H20.4777C21.8729 3 23.004 4.13107 23.004 5.52632V13.1053L23.0206 17.7868C23.0216 18.0629 22.7986 18.2876 22.5224 18.2886C22.3892 18.289 22.2613 18.2363 22.1671 18.1421L19.6565 15.6316H16Z" fill="currentColor"/>
<path opacity="0.3" fill-rule="evenodd" clip-rule="evenodd" d="M1.98511 18V13C1.98511 11.8954 2.88054 11 3.98511 11H11.9851C13.0897 11 13.9851 11.8954 13.9851 13V18C13.9851 19.1046 13.0897 20 11.9851 20H4.10084L2.85699 21.1905C2.65749 21.3815 2.34099 21.3745 2.15005 21.175C2.06098 21.082 2.01126 20.9581 2.01126 20.8293V18.3243C1.99405 18.2187 1.98511 18.1104 1.98511 18ZM6.50005 14C6.22391 14 6.00005 14.2239 6.00005 14.5C6.00005 14.7761 6.22391 15 6.50005 15H11.5001C11.7762 15 12.0001 14.7761 12.0001 14.5C12.0001 14.2239 11.7762 14 11.5001 14H6.50005ZM9.50005 16C9.22391 16 9.00005 16.2239 9.00005 16.5C9.00005 16.7761 9.22391 17 9.50005 17H11.5001C11.7762 17 12.0001 16.7761 12.0001 16.5C12.0001 16.2239 11.7762 16 11.5001 16H9.50005Z" fill="currentColor"/>
</svg>
