<svg width="24" height="24" viewBox="0 0 24 24" fill="none" xmlns="http://www.w3.org/2000/svg">
<path d="M19.2078 9.84836C20.3303 11.0179 21 12 21 12C21 12 16.909 18 12 18C11.6893 18 11.3879 17.9865 11.0955 17.9607L19.2078 9.84836Z" fill="currentColor"/>
<path d="M14.5051 6.49485L12 9C10.3431 9 9 10.3431 9 12L5.52661 15.4734C3.75006 13.8335 3 12 3 12C3 12 5.45455 6 12 6C12.8665 6 13.7076 6.18695 14.5051 6.49485Z" fill="currentColor"/>
<path opacity="0.3" d="M18.535 5L5.09998 18.435L6.51419 19.8492L19.9492 6.41421L18.535 5Z" fill="currentColor"/>
</svg>
