<svg width="24" height="24" viewBox="0 0 24 24" fill="none" xmlns="http://www.w3.org/2000/svg">
<path opacity="0.3" d="M16 17C16 16.4477 16.4477 16 17 16C17.5523 16 18 16.4477 18 17V18C18 20.2091 16.2092 22 14 22L6.00002 22C3.79088 22 2.00002 20.2091 2.00002 18L2.00002 6C2.00002 3.79086 3.79088 2 6.00002 2L14.007 2C16.2161 2 18.007 3.79086 18.007 6V7C18.007 7.55229 17.5592 8 17.007 8C16.4547 8 16.007 7.55229 16.007 7V6C16.007 4.89543 15.1115 4 14.007 4L6.00002 4C4.89545 4 4.00002 4.89543 4.00002 6L4.00002 18C4.00002 19.1046 4.89545 20 6.00002 20L14 20C15.1046 20 16 19.1046 16 18V17Z" fill="currentColor"/>
<path opacity="0.3" d="M21 11C21.5523 11 22 11.4477 22 12C22 12.5523 21.5523 13 21 13H11C10.4477 13 10 12.5523 10 12C10 11.4477 10.4477 11 11 11H21Z" fill="currentColor"/>
<path d="M21.5858 12L19.2929 14.2929C18.9024 14.6834 18.9024 15.3166 19.2929 15.7071C19.6834 16.0976 20.3166 16.0976 20.7071 15.7071L23.7071 12.7071C24.0976 12.3166 24.0976 11.6834 23.7071 11.2929L20.7071 8.29289C20.3166 7.90237 19.6834 7.90237 19.2929 8.29289C18.9024 8.68342 18.9024 9.31658 19.2929 9.70711L21.5858 12Z" fill="currentColor"/>
</svg>
