<svg width="24" height="24" viewBox="0 0 24 24" fill="none" xmlns="http://www.w3.org/2000/svg">
    <path opacity="0.3" fill-rule="evenodd" clip-rule="evenodd" d="M14.8572 13C14.9499 12.7223 15 12.4263 15 12.119V6.88095C15 5.28985 13.6569 4 12 4H11.7273C10.221 4 9 5.17259 9 6.61905H10.0909C10.0909 5.75117 10.8235 5.04762 11.7273 5.04762H12C13.0544 5.04762 13.9091 5.86843 13.9091 6.88095V12.119C13.9091 12.4383 13.8241 12.7386 13.6746 13H10.3254C10.1759 12.7386 10.0909 12.4383 10.0909 12.119V9.5C10.0909 9.06606 10.4572 8.71429 10.9091 8.71429C11.361 8.71429 11.7273 9.06606 11.7273 9.5V11.3333H12.8182V9.5C12.8182 8.48748 11.9635 7.66667 10.9091 7.66667C9.85473 7.66667 9 8.48748 9 9.5V12.119C9 12.4263 9.05009 12.7223 9.14285 13H6C5.44772 13 5 12.5523 5 12V3C5 2.44772 5.44772 2 6 2H18C18.5523 2 19 2.44772 19 3V12C19 12.5523 18.5523 13 18 13H14.8572Z" fill="currentColor"/>
    <path fill-rule="evenodd" clip-rule="evenodd" d="M9 10.3333V12.119C9 13.7102 10.3431 15 12 15C13.6569 15 15 13.7102 15 12.119V10.3333L20.2073 6.57254C20.4311 6.41086 20.7437 6.46127 20.9053 6.68513C20.9669 6.77034 21 6.87277 21 6.97788V17C21 18.1046 20.1046 19 19 19H5C3.89543 19 3 18.1046 3 17V6.97788C3 6.70173 3.22386 6.47788 3.5 6.47788C3.60511 6.47788 3.70754 6.511 3.79275 6.57254L9 10.3333ZM10.0909 11.1212L12 12.5L13.9091 11.1212V12.119C13.9091 13.1316 13.0544 13.9524 12 13.9524C10.9456 13.9524 10.0909 13.1316 10.0909 12.119V11.1212Z" fill="currentColor"/>
</svg>
    