<svg width="24" height="24" viewBox="0 0 24 24" fill="none" xmlns="http://www.w3.org/2000/svg">
<path opacity="0.3" d="M17 2H7C4.23858 2 2 4.23858 2 7V17C2 19.7614 4.23858 22 7 22H17C19.7614 22 22 19.7614 22 17V7C22 4.23858 19.7614 2 17 2Z" fill="currentColor"/>
<path d="M17.0104 10.9247H7.01038C6.45809 10.9247 6.01038 11.3724 6.01038 11.9247C6.01038 12.477 6.45809 12.9247 7.01038 12.9247H17.0104C17.5627 12.9247 18.0104 12.477 18.0104 11.9247C18.0104 11.3724 17.5627 10.9247 17.0104 10.9247Z" fill="currentColor"/>
</svg>
