<svg width="24" height="24" viewBox="0 0 24 24" fill="none" xmlns="http://www.w3.org/2000/svg">
<path opacity="0.3" d="M4.425 20.525C2.525 18.625 2.525 15.525 4.425 13.525L14.825 3.125C16.325 1.625 18.825 1.625 20.425 3.125C20.825 3.525 20.825 4.12502 20.425 4.52502C20.025 4.92502 19.425 4.92502 19.025 4.52502C18.225 3.72502 17.025 3.72502 16.225 4.52502L5.82499 14.925C4.62499 16.125 4.62499 17.925 5.82499 19.125C7.02499 20.325 8.82501 20.325 10.025 19.125L18.425 10.725C18.825 10.325 19.425 10.325 19.825 10.725C20.225 11.125 20.225 11.725 19.825 12.125L11.425 20.525C9.525 22.425 6.425 22.425 4.425 20.525Z" fill="currentColor"/>
<path d="M9.32505 15.625C8.12505 14.425 8.12505 12.625 9.32505 11.425L14.2251 6.52498C14.6251 6.12498 15.2251 6.12498 15.6251 6.52498C16.0251 6.92498 16.0251 7.525 15.6251 7.925L10.7251 12.8249C10.3251 13.2249 10.3251 13.8249 10.7251 14.2249C11.1251 14.6249 11.7251 14.6249 12.1251 14.2249L19.1251 7.22493C19.5251 6.82493 19.7251 6.425 19.7251 5.925C19.7251 5.325 19.5251 4.825 19.1251 4.425C18.7251 4.025 18.7251 3.42498 19.1251 3.02498C19.5251 2.62498 20.1251 2.62498 20.5251 3.02498C21.3251 3.82498 21.7251 4.825 21.7251 5.925C21.7251 6.925 21.3251 7.82498 20.5251 8.52498L13.5251 15.525C12.3251 16.725 10.5251 16.725 9.32505 15.625Z" fill="currentColor"/>
</svg>
