<svg width="24" height="24" viewBox="0 0 24 24" fill="none" xmlns="http://www.w3.org/2000/svg">
    <path fill-rule="evenodd" clip-rule="evenodd" d="M15 16V7L13.8474 6.6158C12.6238 6.20793 11.3425 6 10.0527 6H6.45941C5.02937 6 3.79812 7.00938 3.51767 8.41165L2.76847 12.1576C2.44354 13.7823 3.49719 15.3628 5.12187 15.6877C5.38108 15.7396 5.64601 15.7569 5.90977 15.7393L9.5 15.5L9.1358 19.5062C9.06731 20.2596 9.62256 20.9259 10.376 20.9944C10.4172 20.9981 10.4586 21 10.5 21C11.4306 21 12.293 20.5117 12.7717 19.7138L15 16Z" fill="currentColor"/>
    <path opacity="0.3" d="M18 17H21C21.5523 17 22 16.5523 22 16V7C22 6.44771 21.5523 6 21 6H18C17.4477 6 17 6.44771 17 7V16C17 16.5523 17.4477 17 18 17Z" fill="currentColor"/>
    </svg>
    