<svg width="24" height="24" viewBox="0 0 24 24" fill="none" xmlns="http://www.w3.org/2000/svg">
<path opacity="0.3" d="M18.6225 9.75H18.75C19.9926 9.75 21 10.7574 21 12C21 13.2426 19.9926 14.25 18.75 14.25L18.6855 14.25C18.4912 14.2508 18.3159 14.3669 18.2394 14.5454C18.1557 14.7351 18.1943 14.9481 18.3278 15.0847L18.3725 15.1294C18.795 15.5514 19.0324 16.1241 19.0324 16.7213C19.0324 17.3184 18.795 17.8911 18.3731 18.3125C17.9511 18.735 17.3784 18.9724 16.7812 18.9724C16.1841 18.9724 15.6114 18.735 15.1897 18.3128L15.1506 18.2736C15.0081 18.1343 14.7951 18.0957 14.6054 18.1794C14.4269 18.2559 14.3108 18.4312 14.31 18.6225V18.75C14.31 19.9926 13.3026 21 12.06 21C10.8174 21 9.81 19.9926 9.81 18.75C9.80552 18.4999 9.67899 18.323 9.44718 18.2361C9.26485 18.1557 9.05191 18.1943 8.91533 18.3278L8.87062 18.3725C8.4486 18.795 7.87592 19.0324 7.27875 19.0324C6.68158 19.0324 6.1089 18.795 5.68747 18.3731C5.26497 17.9511 5.02757 17.3784 5.02757 16.7812C5.02757 16.1841 5.26497 15.6114 5.68717 15.1897L5.72635 15.1506C5.86571 15.0081 5.90432 14.7951 5.82065 14.6054C5.7441 14.4269 5.56881 14.3108 5.3775 14.31H5.25C4.00736 14.31 3 13.3026 3 12.06C3 10.8174 4.00736 9.81 5.25 9.81C5.50008 9.80552 5.677 9.67899 5.76385 9.44718C5.84432 9.26485 5.80571 9.05191 5.67217 8.91533L5.62746 8.87062C5.20497 8.4486 4.96757 7.87592 4.96757 7.27875C4.96757 6.68158 5.20497 6.1089 5.62687 5.68747C6.0489 5.26497 6.62158 5.02757 7.21875 5.02757C7.81592 5.02757 8.3886 5.26497 8.81033 5.68717L8.84945 5.72635C8.99191 5.86571 9.20485 5.90432 9.38718 5.82385L9.49485 5.80115C9.65041 5.71689 9.74929 5.55401 9.75 5.3775V5.25C9.75 4.00736 10.7574 3 12 3C13.2426 3 14.25 4.00736 14.25 5.25L14.25 5.31451C14.2508 5.50881 14.3669 5.6841 14.5528 5.76385C14.7351 5.84432 14.9481 5.80571 15.0847 5.67217L15.1294 5.62746C15.5514 5.20497 16.1241 4.96757 16.7213 4.96757C17.3184 4.96757 17.8911 5.20497 18.3125 5.62687C18.735 6.0489 18.9724 6.62158 18.9724 7.21875C18.9724 7.81592 18.735 8.3886 18.3128 8.81033L18.2736 8.84945C18.1343 8.99191 18.0957 9.20485 18.1761 9.38718L18.1989 9.49485C18.2831 9.65041 18.446 9.74929 18.6225 9.75Z" fill="currentColor"/>
<path fill-rule="evenodd" clip-rule="evenodd" d="M12 15C13.6569 15 15 13.6569 15 12C15 10.3431 13.6569 9 12 9C10.3431 9 9 10.3431 9 12C9 13.6569 10.3431 15 12 15Z" fill="currentColor"/>
</svg>
