<svg  viewBox="0 0 32 32" fill="none" xmlns="http://www.w3.org/2000/svg">
    <path d="M8.109 4.25998L16 3.43298L23.891 4.26098L30 12.4L16 28.567L2 12.4L8.109 4.25998Z" fill="#FDB300"/>
    <path d="M7.671 12.395L16 28.567L2 12.395H7.671Z" fill="#EA6C00"/>
    <path d="M24.329 12.395L16 28.567L30 12.395H24.329Z" fill="#EA6C00"/>
    <path d="M7.671 12.395H24.329L16 28.567L7.671 12.395Z" fill="#FDAD00"/>
    <path d="M16 3.43298L8.109 4.25998L7.671 12.395L16 3.43298Z" fill="#FDD231"/>
    <path d="M16 3.43298L23.891 4.25998L24.329 12.395L16 3.43298Z" fill="#FDD231"/>
    <path d="M30 12.395L23.891 4.26001L24.329 12.395H30Z" fill="#FDAD00"/>
    <path d="M2 12.395L8.109 4.26001L7.671 12.395H2Z" fill="#FDAD00"/>
    <path d="M16 3.43298L7.671 12.395H24.329L16 3.43298Z" fill="#FEEEB7"/>
    </svg>
    